<svg width="60" height="60" viewBox="0 0 60 60" fill="none" xmlns="http://www.w3.org/2000/svg">
<path d="M55.6923 31.1538L60 35.4923L39.9077 55.7692L29.2308 45L33.5385 40.6615L39.9077 47.0615L55.6923 31.1538ZM24.6154 5C27.8796 5 31.0101 6.2967 33.3182 8.60484C35.6264 10.913 36.9231 14.0435 36.9231 17.3077C36.9231 20.5719 35.6264 23.7024 33.3182 26.0105C31.0101 28.3187 27.8796 29.6154 24.6154 29.6154C21.3512 29.6154 18.2207 28.3187 15.9125 26.0105C13.6044 23.7024 12.3077 20.5719 12.3077 17.3077C12.3077 14.0435 13.6044 10.913 15.9125 8.60484C18.2207 6.2967 21.3512 5 24.6154 5ZM24.6154 11.1538C22.9833 11.1538 21.418 11.8022 20.264 12.9563C19.1099 14.1103 18.4615 15.6756 18.4615 17.3077C18.4615 18.9398 19.1099 20.505 20.264 21.6591C21.418 22.8132 22.9833 23.4615 24.6154 23.4615C26.2475 23.4615 27.8127 22.8132 28.9668 21.6591C30.1209 20.505 30.7692 18.9398 30.7692 17.3077C30.7692 15.6756 30.1209 14.1103 28.9668 12.9563C27.8127 11.8022 26.2475 11.1538 24.6154 11.1538ZM24.6154 32.6923C26.7077 32.6923 29.2308 32.9692 32.0308 33.4923L26.8923 38.6308L24.6154 38.5385C15.4769 38.5385 5.84615 43.0308 5.84615 45V48.3846H24.9231L30.7692 54.2308H0V45C0 36.8154 16.4 32.6923 24.6154 32.6923Z" fill="#3097BF"/>
</svg>
