<svg width="60" height="51" viewBox="0 0 60 51" fill="none" xmlns="http://www.w3.org/2000/svg">
<path d="M55.6923 26.1538L60 30.4923L39.9077 50.7692L29.2308 40L33.5385 35.6615L39.9077 42.0615L55.6923 26.1538ZM24.6154 0C27.8796 0 31.0101 1.2967 33.3182 3.60484C35.6264 5.91298 36.9231 9.04349 36.9231 12.3077C36.9231 15.5719 35.6264 18.7024 33.3182 21.0105C31.0101 23.3187 27.8796 24.6154 24.6154 24.6154C21.3512 24.6154 18.2207 23.3187 15.9125 21.0105C13.6044 18.7024 12.3077 15.5719 12.3077 12.3077C12.3077 9.04349 13.6044 5.91298 15.9125 3.60484C18.2207 1.2967 21.3512 0 24.6154 0ZM24.6154 6.15385C22.9833 6.15385 21.418 6.8022 20.264 7.95627C19.1099 9.11034 18.4615 10.6756 18.4615 12.3077C18.4615 13.9398 19.1099 15.505 20.264 16.6591C21.418 17.8132 22.9833 18.4615 24.6154 18.4615C26.2475 18.4615 27.8127 17.8132 28.9668 16.6591C30.1209 15.505 30.7692 13.9398 30.7692 12.3077C30.7692 10.6756 30.1209 9.11034 28.9668 7.95627C27.8127 6.8022 26.2475 6.15385 24.6154 6.15385ZM24.6154 27.6923C26.7077 27.6923 29.2308 27.9692 32.0308 28.4923L26.8923 33.6308L24.6154 33.5385C15.4769 33.5385 5.84615 38.0308 5.84615 40V43.3846H24.9231L30.7692 49.2308H0V40C0 31.8154 16.4 27.6923 24.6154 27.6923Z" fill="#3097BF"/>
</svg>
